<svg width="15" height="15" viewBox="0 0 15 15" fill="none" xmlns="http://www.w3.org/2000/svg">
<path fill-rule="evenodd" clip-rule="evenodd" d="M8.82281 9.88281C7.71223 10.7248 6.32343 11.1138 4.93709 10.9711C3.55074 10.8285 2.27024 10.1649 1.35438 9.11439C0.438515 8.06391 -0.044406 6.70492 0.00321465 5.31207C0.0508353 3.91922 0.625446 2.59639 1.61092 1.61092C2.59639 0.625446 3.91922 0.0508353 5.31207 0.00321465C6.70492 -0.044406 8.06391 0.438515 9.11439 1.35438C10.1649 2.27024 10.8285 3.55074 10.9711 4.93709C11.1138 6.32343 10.7248 7.71223 9.88281 8.82281L14.6028 13.5428L13.5428 14.6028L8.82281 9.88281ZM9.49981 5.49981C9.49981 6.56067 9.07838 7.57809 8.32823 8.32823C7.57809 9.07838 6.56067 9.49981 5.49981 9.49981C4.43894 9.49981 3.42153 9.07838 2.67138 8.32823C1.92123 7.57809 1.49981 6.56067 1.49981 5.49981C1.49981 4.43894 1.92123 3.42153 2.67138 2.67138C3.42153 1.92123 4.43894 1.49981 5.49981 1.49981C6.56067 1.49981 7.57809 1.92123 8.32823 2.67138C9.07838 3.42153 9.49981 4.43894 9.49981 5.49981Z" fill="#1E73BE"/>
</svg>
