<svg width="165" height="71" viewBox="0 0 165 71" fill="none" xmlns="http://www.w3.org/2000/svg">
<path d="M150.404 57.6829H65.6235C63.2169 57.6829 60.8509 58.3035 58.7541 59.4846L40.8151 69.5898C40.524 69.7537 40.1956 69.8399 39.8616 69.8399C38.7886 69.8399 37.9187 68.97 37.9187 67.897V63.7614C37.9187 60.4044 35.2001 57.6829 31.8431 57.6829H14.5389C6.92472 57.6829 3.21772 55.4802 1.73589 53.6393C1.05022 52.7875 0.96875 51.6536 0.96875 50.5601V6.53305C0.96875 1.60833 10.0155 0.563709 14.5389 0.656985C54.8677 0.582368 138.501 0.477905 150.404 0.656985C157.839 0.768851 161.45 1.86194 163.007 2.98956C164.212 3.86153 163.974 5.6018 163.974 7.0886V53.8775C163.974 57.4143 154.927 57.8881 150.404 57.6829Z" fill="#DC4132" stroke="#DC4132" stroke-width="0.699816"/>
</svg>
